<?xml version="1.0" encoding="UTF-8"?>
<svg version="1.1" xmlns="http://www.w3.org/2000/svg" width="502" height="497">
<path d="M0 0 C0.95986816 0.23315918 1.91973633 0.46631836 2.90869141 0.70654297 C32.89157038 8.16504226 61.91683519 20.82163737 87 39 C87.66080566 39.474375 88.32161133 39.94875 89.00244141 40.4375 C96.95671079 46.17488332 104.53360832 52.10262204 111.66796875 58.84375 C114.01309745 61.0770193 114.01309745 61.0770193 116.80078125 63.15625 C117.52652344 63.7646875 118.25226563 64.373125 119 65 C119 65.66 119 66.32 119 67 C119.86625 67.36544922 119.86625 67.36544922 120.75 67.73828125 C125.41120343 70.35211581 128.58830183 74.95914125 132 79 C132.68956787 79.81525146 132.68956787 79.81525146 133.39306641 80.64697266 C177.03749312 132.70335538 197.05355548 198.07403232 191.25 265.625 C189.545351 282.88143756 185.09942341 299.46969855 180 316 C179.78150391 316.71833008 179.56300781 317.43666016 179.33789062 318.17675781 C173.32542017 337.59241241 164.04291261 355.60342085 152.75 372.4375 C152.37435913 372.99781921 151.99871826 373.55813843 151.61169434 374.13543701 C146.73263137 381.36761971 141.54632681 388.2689548 136 395 C135.52755859 395.58386475 135.05511719 396.16772949 134.56835938 396.76928711 C124.27433266 409.46777254 112.93334054 420.97940896 100 431 C98.51113281 432.19689453 98.51113281 432.19689453 96.9921875 433.41796875 C90.99386889 438.19988414 84.80944396 442.54314657 78.3125 446.625 C77.61680908 447.06320068 76.92111816 447.50140137 76.2043457 447.95288086 C71.2580747 451 71.2580747 451 69 451 C69 451.66 69 452.32 69 453 C47.78589003 464.37533008 27.00012178 473.35082397 3.625 479.25 C2.65127441 479.49621094 1.67754883 479.74242187 0.67431641 479.99609375 C-16.46515001 484.19611869 -33.19678609 485.18677962 -50.77026367 485.18530273 C-53.66405104 485.18748234 -56.55745191 485.20567689 -59.45117188 485.22460938 C-74.06313854 485.26935614 -88.28048677 484.23453047 -102.625 481.3125 C-103.44000977 481.14733887 -104.25501953 480.98217773 -105.09472656 480.81201172 C-127.01605268 476.14534483 -148.24913575 468.55143613 -168 458 C-168.66531738 457.64534668 -169.33063477 457.29069336 -170.01611328 456.92529297 C-190.68357961 445.81434311 -208.89274011 432.05247701 -226 416 C-226.63808594 415.40316406 -227.27617187 414.80632812 -227.93359375 414.19140625 C-229.33571495 412.84109553 -230.67676463 411.42770132 -232 410 C-232 409.34 -232 408.68 -232 408 C-232.99 407.67 -233.98 407.34 -235 407 C-235 406.34 -235 405.68 -235 405 C-235.99 404.67 -236.98 404.34 -238 404 C-239.7613057 401.99472966 -241.38914882 399.995812 -243 397.875 C-243.48130371 397.24972412 -243.96260742 396.62444824 -244.45849609 395.98022461 C-245.9810434 393.99329295 -247.49115236 391.99734803 -249 390 C-249.71397949 389.06486572 -249.71397949 389.06486572 -250.44238281 388.11083984 C-257.30436572 379.10656775 -263.44403224 369.86326453 -269 360 C-269.37366699 359.34306152 -269.74733398 358.68612305 -270.13232422 358.00927734 C-283.26952084 334.73206969 -291.73731211 309.15047826 -297 283 C-297.24991699 281.75863281 -297.24991699 281.75863281 -297.50488281 280.4921875 C-302.89460648 252.01480698 -301.96797326 220.27901177 -296 192 C-295.80744629 191.08541016 -295.61489258 190.17082031 -295.41650391 189.22851562 C-286.81504015 149.76382142 -268.83044523 113.54028472 -243.078125 82.5078125 C-241.63269179 80.76351152 -240.22896648 78.98414926 -238.859375 77.1796875 C-237.93898438 76.10074219 -237.93898438 76.10074219 -237 75 C-236.34 75 -235.68 75 -235 75 C-234.73606445 74.41226807 -234.47212891 73.82453613 -234.20019531 73.21899414 C-232.10604678 69.34720488 -228.85402341 66.51730148 -225.75 63.4375 C-225.03634277 62.72730713 -224.32268555 62.01711426 -223.58740234 61.28540039 C-217.12098688 54.94859968 -210.29508979 49.34671177 -203 44 C-202.19949219 43.40445313 -201.39898437 42.80890625 -200.57421875 42.1953125 C-187.14096209 32.49738282 -172.990045 24.031754 -158 17 C-157.12085938 16.56558594 -156.24171875 16.13117187 -155.3359375 15.68359375 C-139.01897091 7.83590982 -121.69181174 2.62048377 -104 -1 C-103.26475098 -1.15307617 -102.52950195 -1.30615234 -101.77197266 -1.46386719 C-68.38707375 -8.28336685 -33.12902012 -8.0857476 0 0 Z " fill="#FC8000" transform="translate(306,7)"/>
<path d="M0 0 C3.21238554 3.21238554 4.2164319 7.4042468 5.75 11.625 C6.10271973 12.59542236 6.45543945 13.56584473 6.81884766 14.56567383 C24.87371446 65.66396827 23.85189535 119.61446328 8 171 C7.67225586 172.07749512 7.67225586 172.07749512 7.33789062 173.17675781 C4.35180868 182.81950552 0.33252112 191.88855265 -4 201 C-4.49838379 202.0509082 -4.99676758 203.10181641 -5.51025391 204.18457031 C-8.56582292 210.47197191 -11.94420997 216.30463528 -16 222 C-16.33 221.34 -16.66 220.68 -17 220 C-16.26821134 217.92803369 -15.44100997 215.8891448 -14.5625 213.875 C-14.08941406 212.77929688 -13.61632812 211.68359375 -13.12890625 210.5546875 C-12.75636719 209.71164062 -12.38382812 208.86859375 -12 208 C-11.01 208 -10.02 208 -9 208 C-8.34 205.36 -7.68 202.72 -7 200 C-6.34 200 -5.68 200 -5 200 C-4.01 194.72 -3.02 189.44 -2 184 C-1.01 183.67 -0.02 183.34 1 183 C1.6422386 181.27650745 1.6422386 181.27650745 2 179 C2.33 177.906875 2.66 176.81375 3 175.6875 C3.96698437 172.12174513 4.5514512 168.66314854 5 165 C5.66 165 6.32 165 7 165 C7.04898437 164.31292969 7.09796875 163.62585938 7.1484375 162.91796875 C7.22320312 162.01691406 7.29796875 161.11585938 7.375 160.1875 C7.44460938 159.29417969 7.51421875 158.40085937 7.5859375 157.48046875 C8 155 8 155 10 152 C10.38549025 149.16516695 10.38549025 149.16516695 10.5 146.0625 C10.78123062 140.38867214 10.78123062 140.38867214 11.92138672 138.36303711 C17.7315356 125.63410298 16.47380128 108.31526603 16.39111328 94.65478516 C16.37501272 91.50248982 16.39107538 88.35147599 16.41015625 85.19921875 C16.427811 68.89314733 15.2655868 52.71539665 10.375 37.0625 C7.74977585 28.25706067 7.74977585 28.25706067 7 24 C6.34 24 5.68 24 5 24 C4.89042969 23.43152344 4.78085937 22.86304688 4.66796875 22.27734375 C3.87103457 18.39633909 3.02997823 15.0657215 1.375 11.4375 C-0.29592016 7.2601996 -0.2344907 4.45532329 0 0 Z " fill="#EB9237" transform="translate(478,152)"/>
<path d="M0 0 C1.45606519 4.52092968 0.27032841 7.51648796 -1 12 C-1.66 12 -2.32 12 -3 12 C-3.0825 12.845625 -3.165 13.69125 -3.25 14.5625 C-3.97414408 17.88149369 -5.14546129 20.08226068 -6.8828125 22.9609375 C-10.87612757 30.24943564 -12.64210774 37.75058342 -13 46 C-13.66 46 -14.32 46 -15 46 C-15.12117187 46.54527344 -15.24234375 47.09054688 -15.3671875 47.65234375 C-15.53476563 48.40644531 -15.70234375 49.16054687 -15.875 49.9375 C-16.05675781 50.76636719 -16.23851562 51.59523437 -16.42578125 52.44921875 C-16.77910352 54.01873877 -17.14810085 55.58494507 -17.54296875 57.14453125 C-18.93102634 62.76981729 -19.41551265 68.3017161 -19.75390625 74.08203125 C-20 77 -20 77 -20.50531006 78.90913391 C-21.03080985 81.13022153 -21.14038953 83.09133487 -21.16113281 85.37182617 C-21.17060944 86.23263794 -21.18008606 87.09344971 -21.18984985 87.98034668 C-21.19423065 88.90851196 -21.19861145 89.83667725 -21.203125 90.79296875 C-21.21000336 91.76375366 -21.21688171 92.73453857 -21.22396851 93.73474121 C-21.24120452 96.88569858 -21.24743474 100.03649786 -21.25 103.1875 C-21.25167175 104.25400787 -21.25334351 105.32051575 -21.25506592 106.41934204 C-21.25655201 122.1688093 -20.66258018 137.44851557 -18 153 C-17.84241211 154.04236816 -17.68482422 155.08473633 -17.52246094 156.15869141 C-17.3577832 157.22651855 -17.19310547 158.2943457 -17.0234375 159.39453125 C-16.87567871 160.3688208 -16.72791992 161.34311035 -16.57568359 162.34692383 C-16.02635616 164.87853588 -15.21019922 166.73114708 -14 169 C-13.69140625 171.26171875 -13.69140625 171.26171875 -13.5625 173.6875 C-13.20614603 178.02738231 -12.25046868 181.67395854 -10.765625 185.75 C-9.5156273 189.42346262 -8.76351558 193.20038718 -8 197 C-10.17451932 194.82548068 -10.62119445 193.6105465 -11.55078125 190.73046875 C-11.83469727 189.85269775 -12.11861328 188.97492676 -12.41113281 188.07055664 C-12.70858398 187.11914795 -13.00603516 186.16773926 -13.3125 185.1875 C-13.62155273 184.20064209 -13.93060547 183.21378418 -14.24902344 182.19702148 C-17.31471495 172.22875874 -19.96617022 162.23025926 -22 152 C-22.16516113 151.17677246 -22.33032227 150.35354492 -22.50048828 149.50537109 C-27.89355678 121.0230538 -26.96917697 89.28471548 -21 61 C-20.80744629 60.08541016 -20.61489258 59.17082031 -20.41650391 58.22851562 C-16.03494991 38.12534557 -9.20753845 18.4150769 0 0 Z " fill="#F6C68C" transform="translate(31,138)"/>
<path d="M0 0 C4.95851377 -0.37422745 8.38461535 -0.01025545 13 1.875 C18.49534645 4.07468221 23.75064615 4.76773401 29.60546875 5.22802734 C33.57667823 5.59179481 35.36542921 6.0467938 38 9 C40.27161255 9.57323807 40.27161255 9.57323807 42.6875 9.6875 C43.49574219 9.75324219 44.30398437 9.81898438 45.13671875 9.88671875 C45.75160156 9.92410156 46.36648437 9.96148437 47 10 C47 10.66 47 11.32 47 12 C54.39732867 12.02314716 61.79464955 12.04092723 69.19200706 12.05181217 C72.62671562 12.05703579 76.06139943 12.06412401 79.49609375 12.07543945 C83.44270535 12.08836035 87.38930684 12.09323252 91.3359375 12.09765625 C92.57242035 12.10281754 93.8089032 12.10797882 95.08285522 12.11329651 C96.79440292 12.11340981 96.79440292 12.11340981 98.54052734 12.11352539 C99.548685 12.115746 100.55684265 12.11796661 101.59555054 12.12025452 C104.01333061 12.16082548 104.01333061 12.16082548 106 11 C108.01836012 10.83995382 110.0401542 10.7225184 112.0625 10.625 C117.79472016 10.24601024 123.39852296 9.58407795 129.0625 8.625 C129.77607666 8.5110791 130.48965332 8.3971582 131.22485352 8.27978516 C134.33223003 7.72819729 136.74579245 7.16412429 139.4140625 5.44140625 C143.25753575 3.29904729 146.97870804 3.43221801 151.3125 3.3125 C152.14845703 3.27833984 152.98441406 3.24417969 153.84570312 3.20898438 C155.89667772 3.12694539 157.94831538 3.0617849 160 3 C157.46135196 5.53864804 155.57827738 5.79184203 152.1015625 6.65625 C150.89886719 6.95660156 149.69617188 7.25695312 148.45703125 7.56640625 C147.19246094 7.87449219 145.92789063 8.18257813 144.625 8.5 C142.78615234 8.96212891 142.78615234 8.96212891 140.91015625 9.43359375 C122.94148788 13.87336017 105.67110903 15.18685256 87.22973633 15.18530273 C84.33594896 15.18748234 81.44254809 15.20567689 78.54882812 15.22460938 C63.93626898 15.26935796 49.72028045 14.23284648 35.375 11.3125 C34.1677124 11.06910889 34.1677124 11.06910889 32.93603516 10.82080078 C25.9827391 9.34529677 19.17885223 7.42465385 12.375 5.375 C11.37259277 5.07376221 10.37018555 4.77252441 9.33740234 4.4621582 C2.25764123 2.25764123 2.25764123 2.25764123 0 0 Z " fill="#EDA95C" transform="translate(168,477)"/>
<path d="M0 0 C-3.42161718 1.12977926 -5.97651169 0.88887425 -9.5 0.25 C-10.4384375 0.09015625 -11.376875 -0.0696875 -12.34375 -0.234375 C-15.18326764 -1.0528242 -16.71177591 -2.1759853 -19 -4 C-24.90881102 -6.68040822 -31.21608821 -7.65231573 -37.59375 -8.5703125 C-40 -9 -40 -9 -41 -10 C-43.32817964 -10.36760731 -45.6618385 -10.70241581 -48 -11 C-48 -11.66 -48 -12.32 -48 -13 C-53.61 -13.33 -59.22 -13.66 -65 -14 C-65 -14.66 -65 -15.32 -65 -16 C-72.99743882 -16.02319531 -80.99486352 -16.04095173 -88.99232769 -16.05181217 C-92.70607888 -16.05702527 -96.419807 -16.06409433 -100.13354492 -16.07543945 C-103.71914203 -16.08632426 -107.304717 -16.09228869 -110.89032936 -16.09487724 C-112.25662395 -16.09672141 -113.62291736 -16.1003226 -114.9892025 -16.10573006 C-116.90644519 -16.11301462 -118.82371027 -16.11340869 -120.7409668 -16.11352539 C-122.37644722 -16.11685631 -122.37644722 -16.11685631 -124.04496765 -16.12025452 C-126.81547156 -16.00750935 -129.29985516 -15.59918734 -132 -15 C-133.43628457 -14.93733488 -134.8750555 -14.91313653 -136.3125 -14.9375 C-138.1378125 -14.9684375 -138.1378125 -14.9684375 -140 -15 C-140 -15.33 -140 -15.66 -140 -16 C-94.00611565 -26.1251174 -42.66931646 -19.3097732 0 0 Z " fill="#F1BA79" transform="translate(348,21)"/>
<path d="M0 0 C0.66 0.33 1.32 0.66 2 1 C0.65284929 4.0944452 -0.7517211 5.89221259 -3.375 8 C-7.00204115 10.99006078 -10.23745759 14.17880049 -13.4375 17.625 C-16 20 -16 20 -18.5625 21 C-22.70241686 22.69842743 -24.46148573 25.89849354 -26.375 29.8125 C-29.02189331 35.00448303 -32.11760456 39.74506971 -37 43 C-37.33 43.99 -37.66 44.98 -38 46 C-38.763125 46.433125 -39.52625 46.86625 -40.3125 47.3125 C-43.58344496 49.36634916 -44.93035924 51.78848847 -47 55 C-47.66 55 -48.32 55 -49 55 C-49.08636719 55.68707031 -49.17273437 56.37414062 -49.26171875 57.08203125 C-50.4194772 64.50655562 -50.4194772 64.50655562 -53.5 67.125 C-56 68 -56 68 -58 68 C-53.95614177 57.11268939 -46.15370036 48.00866518 -39 39 C-38.35949707 38.18474854 -38.35949707 38.18474854 -37.70605469 37.35302734 C-32.26329342 30.43401598 -32.26329342 30.43401598 -30 28 C-29.34 28 -28.68 28 -28 28 C-27.73896484 27.41444336 -27.47792969 26.82888672 -27.20898438 26.22558594 C-25.92607857 23.86392008 -24.54932909 22.29086709 -22.65625 20.390625 C-21.65851563 19.38708984 -21.65851563 19.38708984 -20.640625 18.36328125 C-19.93421875 17.66589844 -19.2278125 16.96851562 -18.5 16.25 C-17.42492187 15.18072266 -17.42492187 15.18072266 -16.328125 14.08984375 C-11.15565587 9.00110163 -5.86531604 4.28619249 0 0 Z " fill="#EC9C42" transform="translate(99,54)"/>
<path d="M0 0 C0.99 1.485 0.99 1.485 2 3 C-3.18056528 22.94854033 -31.44760934 45.96153861 -47 58 C-48.13213188 58.89895748 -49.26361182 59.79873645 -50.39453125 60.69921875 C-51.5540025 61.61284916 -52.71414793 62.52562469 -53.875 63.4375 C-54.41068604 63.86321289 -54.94637207 64.28892578 -55.49829102 64.72753906 C-58.53317031 67.07927298 -61.35865213 68.77054122 -65 70 C-65 69.34 -65 68.68 -65 68 C-64.21625 67.773125 -63.4325 67.54625 -62.625 67.3125 C-59.76777147 66.25064593 -59.76777147 66.25064593 -59 63.4375 C-58.67 62.633125 -58.34 61.82875 -58 61 C-55.375 60.1875 -55.375 60.1875 -53 60 C-53 59.34 -53 58.68 -53 58 C-52.01 58 -51.02 58 -50 58 C-50 57.34 -50 56.68 -50 56 C-49.01 56 -48.02 56 -47 56 C-47 55.01 -47 54.02 -47 53 C-44.525 52.505 -44.525 52.505 -42 52 C-41.67 50.68 -41.34 49.36 -41 48 C-39.68 48 -38.36 48 -37 48 C-37 47.01 -37 46.02 -37 45 C-36.01 45 -35.02 45 -34 45 C-33.67 43.35 -33.34 41.7 -33 40 C-30.525 39.505 -30.525 39.505 -28 39 C-27.67 37.68 -27.34 36.36 -27 35 C-26.34 35 -25.68 35 -25 35 C-24.67 34.01 -24.34 33.02 -24 32 C-23.01 32 -22.02 32 -21 32 C-21 31.34 -21 30.68 -21 30 C-20.34 30 -19.68 30 -19 30 C-19 28.68 -19 27.36 -19 26 C-18.01 26 -17.02 26 -16 26 C-16 24.68 -16 23.36 -16 22 C-15.34 22 -14.68 22 -14 22 C-14 21.01 -14 20.02 -14 19 C-13.34 19 -12.68 19 -12 19 C-11.9175 18.4225 -11.835 17.845 -11.75 17.25 C-10.7766189 14.3298567 -9.32386725 12.98212207 -7 11 C-6.01 10.67 -5.02 10.34 -4 10 C-3.67 8.02 -3.34 6.04 -3 4 C-2.01 4 -1.02 4 0 4 C0 2.68 0 1.36 0 0 Z " fill="#E89337" transform="translate(453,380)"/>
<path d="M0 0 C3.21238554 3.21238554 4.2164319 7.4042468 5.75 11.625 C6.10271973 12.59542236 6.45543945 13.56584473 6.81884766 14.56567383 C16.05222358 40.69767285 20.16985109 67.42077089 20.1875 95.0625 C20.18830566 96.26245605 20.18911133 97.46241211 20.18994141 98.69873047 C20.14331818 106.17606033 19.7393746 113.5594581 19 121 C18.67 121 18.34 121 18 121 C18.01571045 119.9797876 18.0314209 118.9595752 18.04760742 117.90844727 C18.46635344 88.02301882 18.23170704 57.67354522 7.734375 29.25 C7 27 7 27 7 24 C6.34 24 5.68 24 5 24 C4.89042969 23.43152344 4.78085937 22.86304688 4.66796875 22.27734375 C3.87103457 18.39633909 3.02997823 15.0657215 1.375 11.4375 C-0.29592016 7.2601996 -0.2344907 4.45532329 0 0 Z " fill="#F6C98D" transform="translate(478,152)"/>
<path d="M0 0 C0.33 0 0.66 0 1 0 C1.01458252 1.29284912 1.02916504 2.58569824 1.04418945 3.91772461 C1.30030548 38.08260916 1.30030548 38.08260916 5 72 C5.1561377 73.04236816 5.31227539 74.08473633 5.47314453 75.15869141 C5.6379834 76.22651855 5.80282227 77.2943457 5.97265625 78.39453125 C6.120979 79.3688208 6.26930176 80.34311035 6.42211914 81.34692383 C6.97326385 83.87725318 7.79040695 85.73170382 9 88 C9.30859375 90.26171875 9.30859375 90.26171875 9.4375 92.6875 C9.79385397 97.02738231 10.74953132 100.67395854 12.234375 104.75 C13.4843727 108.42346262 14.23648442 112.20038718 15 116 C12.78821768 113.78821768 12.34930594 112.49628287 11.4140625 109.5546875 C11.12499023 108.65161865 10.83591797 107.7485498 10.53808594 106.81811523 C10.23676758 105.84688721 9.93544922 104.87565918 9.625 103.875 C9.31336914 102.87090088 9.00173828 101.86680176 8.68066406 100.83227539 C7.7771377 97.89111374 6.88789435 94.94591034 6 92 C5.77989258 91.29504395 5.55978516 90.59008789 5.33300781 89.86376953 C-3.49034159 61.33394112 -2.03119375 29.4523094 0 0 Z " fill="#E68F37" transform="translate(8,219)"/>
<path d="M0 0 C0 0.33 0 0.66 0 1 C-9.2950607 3.95306149 -18.16036927 6.76622908 -28 7 C-28 7.66 -28 8.32 -28 9 C-30.90600261 10.25664978 -32.79604584 11 -36 11 C-36 11.66 -36 12.32 -36 13 C-38.99886555 14.27352186 -41.9992972 15.54331385 -45 16.8125 C-46.25876953 17.34713867 -46.25876953 17.34713867 -47.54296875 17.89257812 C-62.6341013 24.26828916 -62.6341013 24.26828916 -68 24.6875 C-69.1446875 24.78611328 -69.1446875 24.78611328 -70.3125 24.88671875 C-71.1478125 24.94279297 -71.1478125 24.94279297 -72 25 C-70.3536359 21.7072718 -66.75873514 20.98966887 -63.5 19.625 C-62.11444501 19.03417844 -60.72902934 18.44303008 -59.34375 17.8515625 C-58.63379883 17.55096924 -57.92384766 17.25037598 -57.19238281 16.94067383 C-54.95528315 15.98081358 -52.7352981 14.98771144 -50.515625 13.98828125 C-39.23089347 8.96259401 -27.70381798 4.94198147 -15.6875 2.0625 C-14.81061523 1.85117432 -13.93373047 1.63984863 -13.03027344 1.42211914 C-8.60299131 0.41229025 -4.57345229 -0.24620542 0 0 Z " fill="#ECA758" transform="translate(208,6)"/>
<path d="M0 0 C0.33 0 0.66 0 1 0 C1.7897404 7.41618408 2.16259613 14.730935 2.125 22.1875 C2.12016602 23.21198242 2.11533203 24.23646484 2.11035156 25.29199219 C2.08569242 28.52825789 2.04553021 31.76396423 2 35 C1.98743164 36.07266113 1.97486328 37.14532227 1.96191406 38.25048828 C1.64089554 59.86682721 1.64089554 59.86682721 -2.0625 68.73046875 C-3.05750761 71.13921634 -3.56288389 73.43649614 -4 76 C-4.66 76 -5.32 76 -6 76 C-6.2520932 68.43720413 -6.2520932 68.43720413 -5.08666992 66.41601562 C-3.46097202 62.80156799 -2.99815078 59.10634415 -2.41796875 55.203125 C-2.28762741 54.32666321 -2.15728607 53.45020142 -2.022995 52.54718018 C-0.57036604 41.97661753 -0.43537007 31.40345396 -0.3125 20.75 C-0.27920857 18.72133388 -0.24470879 16.69268723 -0.20898438 14.6640625 C-0.12546674 9.77615248 -0.05804106 4.88827615 0 0 Z " fill="#EAA24F" transform="translate(495,224)"/>
<path d="M0 0 C3.84421828 0.55205937 6.19549978 1.58426126 9.3125 3.875 C12.83233609 6.32485269 16.08661472 7.98018792 20.13671875 9.34375 C22.88496714 10.31168654 25.4244535 11.64783809 28 13 C28 13.66 28 14.32 28 15 C30.31 15.33 32.62 15.66 35 16 C35.495 17.485 35.495 17.485 36 19 C36.66 19 37.32 19 38 19 C38 19.99 38 20.98 38 22 C32.62567218 20.42134512 27.86849424 18.04157481 22.9375 15.4375 C22.10565186 14.99929932 21.27380371 14.56109863 20.41674805 14.10961914 C13.24923666 10.26378901 6.39732382 6.04205594 0 1 C0 0.67 0 0.34 0 0 Z " fill="#ED9945" transform="translate(112,448)"/>
<path d="M0 0 C17.27730396 1.18449602 32.22679623 6.01030578 48 13 C44.57838282 14.12977926 42.02348831 13.88887425 38.5 13.25 C37.5615625 13.09015625 36.623125 12.9303125 35.65625 12.765625 C32.81673236 11.9471758 31.28822409 10.8240147 29 9 C23.09118898 6.31959178 16.78391179 5.34768427 10.40625 4.4296875 C8 4 8 4 7 3 C4.67182036 2.63239269 2.3381615 2.29758419 0 2 C0 1.34 0 0.68 0 0 Z " fill="#EDA653" transform="translate(300,8)"/>
<path d="M0 0 C1.32 0.33 2.64 0.66 4 1 C4 1.66 4 2.32 4 3 C4.66 3 5.32 3 6 3 C6 3.66 6 4.32 6 5 C6.99 5.33 7.98 5.66 9 6 C10 7.66666667 11 9.33333333 12 11 C12.99 11.33 13.98 11.66 15 12 C15 13.65 15 15.3 15 17 C15.66 17 16.32 17 17 17 C17 18.32 17 19.64 17 21 C17.61875 21.103125 18.2375 21.20625 18.875 21.3125 C21 22 21 22 23 25 C23.99 25 24.98 25 26 25 C26.33 27.31 26.66 29.62 27 32 C24.95880212 30.38405168 22.95927063 28.7143618 21 27 C21 26.34 21 25.68 21 25 C20.01 24.67 19.02 24.34 18 24 C18 23.34 18 22.68 18 22 C17.01 21.67 16.02 21.34 15 21 C13.10110116 18.78510121 11.31874319 16.5728491 9.5625 14.25 C8.60559101 13.00511435 7.64856179 11.7603211 6.69140625 10.515625 C6.23652832 9.91685547 5.78165039 9.31808594 5.31298828 8.70117188 C4.12691603 7.16443861 2.89223627 5.66552256 1.65234375 4.171875 C0 2 0 2 0 0 Z " fill="#EC9746" transform="translate(53,390)"/>
<path d="M0 0 C-6.41132011 6.41132011 -20.65966588 6.61649479 -29.30053711 7.31640625 C-33.03576325 7.62870414 -36.5361929 8.06796348 -40.16015625 9.046875 C-43.79647085 9.94948005 -46.77379587 10.20968646 -50.5 10.125 C-51.5415625 10.10695313 -52.583125 10.08890625 -53.65625 10.0703125 C-54.4296875 10.04710937 -55.203125 10.02390625 -56 10 C-53.29155029 7.29155029 -51.73007753 7.70619123 -47.9375 7.5625 C-42.19582562 7.22440554 -36.60756213 6.59065453 -30.9375 5.625 C-30.22392334 5.51099854 -29.51034668 5.39699707 -28.77514648 5.27954102 C-24.54265431 4.52873633 -21.62199488 3.2312456 -18 1 C-15.3515625 0.48828125 -15.3515625 0.48828125 -12.625 0.3125 C-11.67238281 0.24804688 -10.71976562 0.18359375 -9.73828125 0.1171875 C-6.4822717 -0.0221567 -3.25806643 -0.07240148 0 0 Z " fill="#E68827" transform="translate(328,480)"/>
<path d="M0 0 C0.66 0.33 1.32 0.66 2 1 C0.65284929 4.0944452 -0.7517211 5.89221259 -3.375 8 C-7.00204115 10.99006078 -10.23745759 14.17880049 -13.4375 17.625 C-16 20 -16 20 -18.5 20.9375 C-21.16174699 22.06874247 -21.93067238 22.91479751 -23.6875 25.125 C-24.450625 26.07375 -25.21375 27.0225 -26 28 C-26.66 28 -27.32 28 -28 28 C-26.62268668 24.91039716 -25.03871367 22.7821034 -22.65625 20.390625 C-21.99109375 19.72160156 -21.3259375 19.05257812 -20.640625 18.36328125 C-19.93421875 17.66589844 -19.2278125 16.96851562 -18.5 16.25 C-17.78328125 15.53714844 -17.0665625 14.82429688 -16.328125 14.08984375 C-11.15565587 9.00110163 -5.86531604 4.28619249 0 0 Z " fill="#EDA85B" transform="translate(99,54)"/>
<path d="M0 0 C0.99 0 1.98 0 3 0 C5.61407872 5.36190101 7.49228528 10.03435204 8 16 C8.99 16.33 9.98 16.66 11 17 C14.53278174 22.70180582 16.23239446 29.58573444 18 36 C15.66452054 33.84996283 14.17402768 31.77515832 12.6953125 28.97265625 C12.27878418 28.18560303 11.86225586 27.3985498 11.43310547 26.58764648 C11.00143066 25.75434814 10.56975586 24.9210498 10.125 24.0625 C9.68172363 23.21308838 9.23844727 22.36367676 8.78173828 21.48852539 C0 4.47209206 0 4.47209206 0 0 Z " fill="#ECAC64" transform="translate(23,336)"/>
<path d="M0 0 C10.38169676 15.57254515 9.483927 41.14847053 9 59 C8.67 59 8.34 59 8 59 C7.92483154 57.95827637 7.92483154 57.95827637 7.84814453 56.89550781 C7.61281647 53.67989126 7.36894479 50.46497391 7.125 47.25 C7.04636719 46.15816406 6.96773438 45.06632812 6.88671875 43.94140625 C6.84958675 31.71107813 6.84958675 31.71107813 3 21 C2.92794489 19.31391034 2.91613932 17.62499341 2.9375 15.9375 C2.94652344 15.01839844 2.95554687 14.09929687 2.96484375 13.15234375 C2.98224609 12.08693359 2.98224609 12.08693359 3 11 C2.34 11 1.68 11 1 11 C0.67 7.37 0.34 3.74 0 0 Z " fill="#EB851A" transform="translate(486,181)"/>
<path d="M0 0 C0.84304687 0.42925781 0.84304687 0.42925781 1.703125 0.8671875 C4.02870923 2.01415931 6.37770201 3.07839794 8.75 4.125 C9.54921875 4.47820312 10.3484375 4.83140625 11.171875 5.1953125 C11.77515625 5.46085937 12.3784375 5.72640625 13 6 C13 6.99 13 7.98 13 9 C13.99 9 14.98 9 16 9 C16.33 9.99 16.66 10.98 17 12 C19.40891856 14.74349058 21.15423112 16.69793969 24.625 17.9375 C28.00569195 19.44991482 28.6275451 21.67721446 30 25 C26.0621386 23.29166307 22.84025994 20.70736938 19.5 18.0625 C18.89140137 17.58248535 18.28280273 17.1024707 17.65576172 16.60791016 C13.34856522 13.16997407 9.19099694 9.59454732 5.125 5.875 C4.60744141 5.40199463 4.08988281 4.92898926 3.55664062 4.44165039 C2.34871404 3.31802183 1.17082011 2.16224268 0 1 C0 0.67 0 0.34 0 0 Z " fill="#EFA251" transform="translate(80,422)"/>
<path d="M0 0 C0.33 0 0.66 0 1 0 C1 2.31 1 4.62 1 7 C0.34 7 -0.32 7 -1 7 C-1.06058594 8.14339844 -1.12117187 9.28679687 -1.18359375 10.46484375 C-1.26798428 11.95574305 -1.35263302 13.44662775 -1.4375 14.9375 C-1.49647461 16.06961914 -1.49647461 16.06961914 -1.55664062 17.22460938 C-1.88671875 22.88671875 -1.88671875 22.88671875 -3 24 C-3.21505511 25.4637562 -3.37082631 26.93633636 -3.5 28.41015625 C-3.5825 29.31830078 -3.665 30.22644531 -3.75 31.16210938 C-3.8325 32.11923828 -3.915 33.07636719 -4 34.0625 C-4.56153517 40.39293165 -5.16873698 46.69872941 -6 53 C-6.33 53 -6.66 53 -7 53 C-7.02700675 50.08327116 -7.04684237 47.16679323 -7.0625 44.25 C-7.07087891 43.425 -7.07925781 42.6 -7.08789062 41.75 C-7.09111328 40.95078125 -7.09433594 40.1515625 -7.09765625 39.328125 C-7.10289307 38.5949707 -7.10812988 37.86181641 -7.11352539 37.10644531 C-6.99720344 34.94811028 -6.55403651 33.08353091 -6 31 C-5.87427141 29.06377964 -5.77283927 27.12592053 -5.6875 25.1875 C-5.08419964 16.45448001 -2.76237514 8.28712541 0 0 Z " fill="#EC8319" transform="translate(16,184)"/>
<path d="M0 0 C3.415743 3.415743 4.4854576 8.14667393 6.125 12.625 C6.49753906 13.59824219 6.87007813 14.57148438 7.25390625 15.57421875 C9.36407364 21.31727505 10.45046889 25.88234186 10 32 C8.0549 29.08235 7.54723683 27.37462715 7 24 C6.34 24 5.68 24 5 24 C4.89042969 23.43152344 4.78085937 22.86304688 4.66796875 22.27734375 C3.87103457 18.39633909 3.02997823 15.0657215 1.375 11.4375 C-0.29592016 7.2601996 -0.2344907 4.45532329 0 0 Z " fill="#EEA559" transform="translate(478,152)"/>
<path d="M0 0 C6.7138411 3.50045645 12.80431712 7.54778868 18.875 12.0625 C20.13570313 12.97999023 20.13570313 12.97999023 21.421875 13.91601562 C22.22882813 14.51220703 23.03578125 15.10839844 23.8671875 15.72265625 C24.95169189 16.52328491 24.95169189 16.52328491 26.05810547 17.34008789 C28.06548887 19.05597923 29.50174857 20.83392788 31 23 C29.35 22.67 27.7 22.34 26 22 C26 21.34 26 20.68 26 20 C25.38125 19.855625 24.7625 19.71125 24.125 19.5625 C22 19 22 19 20 18 C19.67 17.01 19.34 16.02 19 15 C18.01 14.67 17.02 14.34 16 14 C15.67 13.34 15.34 12.68 15 12 C13.35636866 11.27840576 11.68949614 10.60648579 10 10 C10 9.34 10 8.68 10 8 C8.02 7.34 6.04 6.68 4 6 C4 5.34 4 4.68 4 4 C3.34 4 2.68 4 2 4 C2 3.34 2 2.68 2 2 C1.34 2 0.68 2 0 2 C0 1.34 0 0.68 0 0 Z " fill="#EAA457" transform="translate(380,38)"/>
<path d="M0 0 C1 2 1 2 0.171875 4.73828125 C-3.0257205 12.77619302 -6.64445087 20.50493382 -10.625 28.1875 C-11.09196289 29.09604736 -11.55892578 30.00459473 -12.04003906 30.94067383 C-14.27755195 35.17835149 -16.25644455 38.88037046 -20 42 C-19.54636829 40.41531323 -19.08688548 38.83230076 -18.625 37.25 C-18.36976563 36.36828125 -18.11453125 35.4865625 -17.8515625 34.578125 C-17.0790066 32.23919428 -16.16374324 30.16557438 -15 28 C-14.01 28 -13.02 28 -12 28 C-11.34 25.36 -10.68 22.72 -10 20 C-9.34 20 -8.68 20 -8 20 C-7.72285156 19.15050781 -7.44570313 18.30101562 -7.16015625 17.42578125 C-5.99339485 13.98049591 -4.73803162 10.58441095 -3.4375 7.1875 C-3.00308594 6.04667969 -2.56867188 4.90585937 -2.12109375 3.73046875 C-1 1 -1 1 0 0 Z " fill="#F0B777" transform="translate(481,332)"/>
<path d="M0 0 C1.84284391 3.4950488 3.03462223 7.02293144 4.21875 10.78125 C4.93958865 13.00919968 4.93958865 13.00919968 6.06640625 14.98828125 C7.14919139 17.32147936 7.30141325 19.12659474 7.4375 21.6875 C7.79385397 26.02738231 8.74953132 29.67395854 10.234375 33.75 C11.4843727 37.42346262 12.23648442 41.20038718 13 45 C10.78821768 42.78821768 10.34930594 41.49628287 9.4140625 38.5546875 C9.12474854 37.64968506 8.83543457 36.74468262 8.53735352 35.81225586 C8.23627686 34.84296143 7.9352002 33.87366699 7.625 32.875 C7.31554443 31.88830322 7.00608887 30.90160645 6.68725586 29.88500977 C-0.33994345 7.19320346 -0.33994345 7.19320346 0 0 Z " fill="#F1BA78" transform="translate(10,290)"/>
<path d="M0 0 C4.22996051 4.22996051 6.20563849 9.19721595 8.75 14.5625 C9.52923828 16.16254883 9.52923828 16.16254883 10.32421875 17.79492188 C10.81019531 18.81263672 11.29617188 19.83035156 11.796875 20.87890625 C12.24385742 21.8129126 12.69083984 22.74691895 13.15136719 23.70922852 C13.43141602 24.46518311 13.71146484 25.2211377 14 26 C13.67 26.66 13.34 27.32 13 28 C10 23.25 10 23.25 10 21 C9.360625 20.87625 8.72125 20.7525 8.0625 20.625 C7.0415625 20.315625 7.0415625 20.315625 6 20 C4.5216774 17.04335481 4.93967217 14.25770263 5 11 C4.34 11 3.68 11 3 11 C3 10.34 3 9.68 3 9 C2.34 9 1.68 9 1 9 C0.67 6.03 0.34 3.06 0 0 Z " fill="#EFA154" transform="translate(464,124)"/>
<path d="M0 0 C1.32 0.33 2.64 0.66 4 1 C-2.18374558 11.51236749 -2.18374558 11.51236749 -7 15 C-7.33 15.99 -7.66 16.98 -8 18 C-10.0625 18.6875 -10.0625 18.6875 -12 19 C-10.92598892 16.08482708 -10.22189824 14.22189824 -8 12 C-7.7525 11.278125 -7.505 10.55625 -7.25 9.8125 C-5.52237204 5.9253371 -2.85446825 3.11478139 0 0 Z " fill="#EA861E" transform="translate(69,82)"/>
<path d="M0 0 C3.55514716 0.58892315 6.43563269 1.5299775 9.65234375 3.14453125 C10.94108398 3.78938477 10.94108398 3.78938477 12.25585938 4.44726562 C13.14080078 4.89779297 14.02574219 5.34832031 14.9375 5.8125 C16.25911133 6.47088867 16.25911133 6.47088867 17.60742188 7.14257812 C22.29252088 9.50442953 26.71448313 11.97119154 31 15 C28 16 28 16 25 15 C25 14.34 25 13.68 25 13 C22.525 12.505 22.525 12.505 20 12 C20 11.34 20 10.68 20 10 C19.34 10.103125 18.68 10.20625 18 10.3125 C14.21594568 9.91832768 12.18516465 8.3969638 9.0703125 6.3125 C6.17201985 4.47509183 3.18600708 3.2611278 0 2 C0 1.34 0 0.68 0 0 Z " fill="#E8A355" transform="translate(348,22)"/>
<path d="M0 0 C-0.125 1.875 -0.125 1.875 -1 4 C-4 5.125 -4 5.125 -7 6 C-7.33 6.66 -7.66 7.32 -8 8 C-8.99 8.33 -9.98 8.66 -11 9 C-11.99 10.485 -11.99 10.485 -13 12 C-19.11068282 15.1685022 -19.11068282 15.1685022 -22.2265625 14.578125 C-22.81179687 14.38734375 -23.39703125 14.1965625 -24 14 C-4.76595745 0 -4.76595745 0 0 0 Z " fill="#E4943C" transform="translate(136,31)"/>
<path d="M0 0 C-1.78809697 1.17213045 -3.58059125 2.33755526 -5.375 3.5 C-6.37273437 4.1496875 -7.37046875 4.799375 -8.3984375 5.46875 C-11 7 -11 7 -13 7 C-13 7.66 -13 8.32 -13 9 C-15.12232979 10.17176518 -17.24757791 11.33754785 -19.375 12.5 C-19.97828125 12.83386719 -20.5815625 13.16773438 -21.203125 13.51171875 C-25.7734375 16 -25.7734375 16 -28 16 C-28 15.01 -28 14.02 -28 13 C-27.01 12.67 -26.02 12.34 -25 12 C-24.67 11.34 -24.34 10.68 -24 10 C-21.70985999 9.11917692 -19.38652273 8.46696231 -17.03125 7.78125 C-14.81437525 7.19064164 -14.81437525 7.19064164 -14 5 C-12.68 5 -11.36 5 -10 5 C-10 4.34 -10 3.68 -10 3 C-6.84439813 -0.15560187 -4.30999015 -1.43666338 0 0 Z " fill="#E99F4D" transform="translate(388,451)"/>
<path d="M0 0 C3.66379303 1.57508859 6.29851305 3.84193573 9.25 6.5 C10.14203125 7.2940625 11.0340625 8.088125 11.953125 8.90625 C14 11 14 11 14 13 C14.61875 13.2475 15.2375 13.495 15.875 13.75 C18.35068687 15.20628639 18.95125002 16.37812506 20 19 C19.34 19 18.68 19 18 19 C18 18.34 18 17.68 18 17 C16.35 16.67 14.7 16.34 13 16 C12.896875 15.360625 12.79375 14.72125 12.6875 14.0625 C12.460625 13.381875 12.23375 12.70125 12 12 C11.01 11.67 10.02 11.34 9 11 C9 10.34 9 9.68 9 9 C7.35 8.67 5.7 8.34 4 8 C4 7.34 4 6.68 4 6 C3.34 6 2.68 6 2 6 C2 5.34 2 4.68 2 4 C1.34 4 0.68 4 0 4 C0 2.68 0 1.36 0 0 Z " fill="#EA9539" transform="translate(411,61)"/>
<path d="M0 0 C0.99 0.33 1.98 0.66 3 1 C3.33 1.99 3.66 2.98 4 4 C4.66 4.33 5.32 4.66 6 5 C6 5.66 6 6.32 6 7 C6.99 7 7.98 7 9 7 C11.77526522 9.56969002 11.99562206 10.9124411 12.1875 14.75 C12.125625 15.8225 12.06375 16.895 12 18 C6.87217161 13.49372656 3.31840053 7.93869374 0 2 C0 1.34 0 0.68 0 0 Z " fill="#EDA14E" transform="translate(41,372)"/>
<path d="M0 0 C0.33 0 0.66 0 1 0 C0.42355959 9.30255565 0.42355959 9.30255565 -3 13 C-3.69580267 14.31836295 -4.37224433 15.64791086 -5 17 C-5.99 16.67 -6.98 16.34 -8 16 C-6.44584521 10.0942118 -3.40465533 5.02261107 0 0 Z " fill="#EB963E" transform="translate(40,122)"/>
<path d="M0 0 C0 0.33 0 0.66 0 1 C-17.49076416 6.44201732 -17.49076416 6.44201732 -26 7 C-28.00277585 7.31622777 -30.00430399 7.64179815 -32 8 C-25.596215 1.596215 -9.0092854 -0.47417292 0 0 Z " fill="#F3C185" transform="translate(208,6)"/>
<path d="M0 0 C1.45606519 4.52092968 0.27032841 7.51648796 -1 12 C-1.66 12 -2.32 12 -3 12 C-3.103125 12.928125 -3.20625 13.85625 -3.3125 14.8125 C-4.0070192 18.03254358 -4.47740939 19.02579865 -7 21 C-7.4820659 15.47345883 -5.91119925 11.9287792 -3.5 7.125 C-3.16613281 6.43664062 -2.83226562 5.74828125 -2.48828125 5.0390625 C-1.66928273 3.35426554 -0.83606409 1.67639381 0 0 Z " fill="#EBAB60" transform="translate(31,138)"/>
<path d="M0 0 C0.66666667 1.33333333 1.33333333 2.66666667 2 4 C2.350625 4.5775 2.70125 5.155 3.0625 5.75 C4.19436935 8.46648644 4.35872261 11.08430841 4.6484375 13.9921875 C4.94030089 16.25399597 4.94030089 16.25399597 6.5625 19 C8.45438905 22.9482902 8.22450951 25.65948278 8 30 C3.21615556 25.21615556 2.65251163 17.73362799 2.30859375 11.26171875 C1.973182 8.8034478 1.13922032 7.18312739 0 5 C-0.125 2.25 -0.125 2.25 0 0 Z " fill="#EB8318" transform="translate(14,298)"/>
<path d="M0 0 C0.33 0 0.66 0 1 0 C1.31042285 9.80706267 1.39925415 18.63181742 -2 28 C-2.66 28 -3.32 28 -4 28 C-4.25104603 20.46861925 -4.25104603 20.46861925 -3.0625 18.25 C-1.48072911 14.90036753 -1.26742038 11.39114652 -0.875 7.75 C-0.78863281 7.00492187 -0.70226562 6.25984375 -0.61328125 5.4921875 C-0.40213133 3.66222154 -0.20015455 1.83120121 0 0 Z " fill="#EA8C26" transform="translate(493,272)"/>
<path d="M0 0 C1.9396503 5.33090985 -0.82738079 10.08301967 -3 15 C-4.125 16.875 -4.125 16.875 -5.1875 18.375 C-7.02066372 21.02992677 -7.62705982 22.83000849 -8 26 C-8.66 26 -9.32 26 -10 26 C-9.0445364 20.56894376 -7.69411802 15.9258742 -5.0859375 11.0625 C-3.19304959 7.46737476 -1.62057729 3.72387974 0 0 Z " fill="#EB8720" transform="translate(28,150)"/>
<path d="M0 0 C1.35996009 4.3947028 0.29547962 7.96696636 -0.8125 12.3125 C-0.99103516 13.04662109 -1.16957031 13.78074219 -1.35351562 14.53710938 C-2.46438497 19.05678357 -3.69576798 23.53256273 -5 28 C-5.33 28 -5.66 28 -6 28 C-5.03644647 16.47835991 -5.03644647 16.47835991 -4 11 C-3.34 11 -2.68 11 -2 11 C-1.93941406 10.37351562 -1.87882812 9.74703125 -1.81640625 9.1015625 C-1.73261719 8.28429687 -1.64882813 7.46703125 -1.5625 6.625 C-1.48128906 5.81289063 -1.40007812 5.00078125 -1.31640625 4.1640625 C-1 2 -1 2 0 0 Z " fill="#F3B977" transform="translate(493,289)"/>
<path d="M0 0 C0 4.11958321 -2.02265681 6.65152622 -4.1875 10 C-4.57486328 10.6290625 -4.96222656 11.258125 -5.36132812 11.90625 C-7.78477872 15.68763406 -9.84561161 17.9929065 -14 20 C-10.55623762 12.63747354 -5.30628241 6.11026459 0 0 Z " fill="#EEB870" transform="translate(61,92)"/>
<path d="M0 0 C6.2879759 4.95010869 11.07037669 10.7178043 16 17 C15.67 17.66 15.34 18.32 15 19 C11.11106295 17.74998452 10.03974769 15.50761908 8.21484375 12.01171875 C6.33222672 8.8942018 3.8704445 6.35095851 1.390625 3.69921875 C0 2 0 2 0 0 Z " fill="#F0AF67" transform="translate(431,80)"/>
<path d="M0 0 C1.77155654 0.11429397 3.54226229 0.24183037 5.3125 0.375 C6.79169922 0.47941406 6.79169922 0.47941406 8.30078125 0.5859375 C11 1 11 1 14 3 C14 3.66 14 4.32 14 5 C15.32 5.66 16.64 6.32 18 7 C13.51006131 6.41347648 9.77456816 5.2356462 5.625 3.4375 C4.56539062 2.98246094 3.50578125 2.52742188 2.4140625 2.05859375 C1.61742187 1.70925781 0.82078125 1.35992187 0 1 C0 0.67 0 0.34 0 0 Z " fill="#ECA457" transform="translate(150,470)"/>
<path d="M0 0 C-0.33 0.66 -0.66 1.32 -1 2 C-3.78372861 2.67152646 -6.49434034 3.21742078 -9.3125 3.6875 C-10.08529297 3.82994141 -10.85808594 3.97238281 -11.65429688 4.11914062 C-15.48171329 4.78062876 -18.22596288 5.14715102 -22 4 C-7.40318907 -0.59225513 -7.40318907 -0.59225513 0 0 Z " fill="#E78826" transform="translate(216,6)"/>
<path d="M0 0 C3.93053185 0.56549393 6.53407537 1.71382558 9.8125 3.9375 C10.60269531 4.46214844 11.39289063 4.98679687 12.20703125 5.52734375 C12.79871094 6.01332031 13.39039062 6.49929688 14 7 C14 7.66 14 8.32 14 9 C14.99 9.33 15.98 9.66 17 10 C16.01 10.495 16.01 10.495 15 11 C12.5390625 9.70703125 12.5390625 9.70703125 9.625 7.8125 C8.66851562 7.20019531 7.71203125 6.58789062 6.7265625 5.95703125 C4.20225623 4.14517245 2.11835251 2.2639265 0 0 Z " fill="#EAA45C" transform="translate(112,448)"/>
<path d="M0 0 C0.99 0 1.98 0 3 0 C3 0.66 3 1.32 3 2 C3.66 2 4.32 2 5 2 C6.9453125 4.1171875 6.9453125 4.1171875 9.125 6.875 C9.84945313 7.77992187 10.57390625 8.68484375 11.3203125 9.6171875 C13 12 13 12 13 14 C12.34 14 11.68 14 11 14 C10.360625 13.030625 9.72125 12.06125 9.0625 11.0625 C7.28938993 7.75744775 7.28938993 7.75744775 4 7 C3.3125 4.9375 3.3125 4.9375 3 3 C2.01 3 1.02 3 0 3 C0 2.01 0 1.02 0 0 Z " fill="#E8871C" transform="translate(426,78)"/>
<path d="M0 0 C3.78699616 3.36621881 6.8272631 7.41641804 9 12 C8.67 12.66 8.34 13.32 8 14 C6.66666667 12.66666667 5.33333333 11.33333333 4 10 C3.071875 9.195625 2.14375 8.39125 1.1875 7.5625 C-1 5 -1 5 -0.8125 2.1875 C-0.544375 1.465625 -0.27625 0.74375 0 0 Z " fill="#EDA45A" transform="translate(455,110)"/>
<path d="M0 0 C2.3125 0.25 2.3125 0.25 5 1 C6.0260734 2.31337396 7.02727325 3.64664105 8 5 C8.66 5.12375 9.32 5.2475 10 5.375 C12 6 12 6 13.75 9.0625 C14.1625 10.031875 14.575 11.00125 15 12 C11.26427172 10.37228982 8.38341608 8.01966695 5.25 5.4375 C4.26515625 4.63183594 3.2803125 3.82617188 2.265625 2.99609375 C1.51796875 2.33738281 0.7703125 1.67867188 0 1 C0 0.67 0 0.34 0 0 Z " fill="#EBAA65" transform="translate(95,435)"/>
<path d="M0 0 C0.33 0.99 0.66 1.98 1 3 C-0.32 3.33 -1.64 3.66 -3 4 C-3 4.66 -3 5.32 -3 6 C-3.66 6 -4.32 6 -5 6 C-5.66 7.98 -6.32 9.96 -7 12 C-8.32 11.34 -9.64 10.68 -11 10 C-10.09515208 8.84481082 -9.1755794 7.70114594 -8.25 6.5625 C-7.73953125 5.92441406 -7.2290625 5.28632812 -6.703125 4.62890625 C-4.78169758 2.79121076 -3.54364341 2.55041023 -1 2 C-0.67 1.34 -0.34 0.68 0 0 Z " fill="#EC8415" transform="translate(84,71)"/>
<path d="M0 0 C4.92127034 -0.16682272 8.50343896 -0.24828052 13 2 C13 2.66 13 3.32 13 4 C14.65 4.33 16.3 4.66 18 5 C13.9154674 6.72251754 10.63026304 5.07280563 6.75 3.5625 C6.1003125 3.31951172 5.450625 3.07652344 4.78125 2.82617188 C3.18383183 2.22714006 1.59139406 1.61485679 0 1 C0 0.67 0 0.34 0 0 Z " fill="#EBAA58" transform="translate(168,477)"/>
<path d="M0 0 C5.75 1.625 5.75 1.625 8 5 C8.99 5 9.98 5 11 5 C11.33 7.31 11.66 9.62 12 12 C9.95880212 10.38405168 7.95927063 8.7143618 6 7 C6 6.34 6 5.68 6 5 C5.01 4.67 4.02 4.34 3 4 C3 3.34 3 2.68 3 2 C2.01 1.67 1.02 1.34 0 1 C0 0.67 0 0.34 0 0 Z " fill="#EFB568" transform="translate(68,410)"/>
<path d="M0 0 C0.99 0 1.98 0 3 0 C3.69937202 1.4317616 4.38412718 2.87067032 5.0625 4.3125 C5.63677734 5.51326172 5.63677734 5.51326172 6.22265625 6.73828125 C7 9 7 9 6 12 C3.32098068 9.68118495 2.33795597 7.68185532 1.3125 4.3125 C1.06113281 3.50425781 0.80976563 2.69601562 0.55078125 1.86328125 C0.36902344 1.24839844 0.18726562 0.63351562 0 0 Z " fill="#EBA354" transform="translate(23,336)"/>
<path d="M0 0 C-0.6171875 2.41796875 -0.6171875 2.41796875 -2 5 C-4.8203125 5.92578125 -4.8203125 5.92578125 -8.125 6.3125 C-9.22070312 6.45300781 -10.31640625 6.59351563 -11.4453125 6.73828125 C-12.28835937 6.82464844 -13.13140625 6.91101563 -14 7 C-12.5438656 4.08773121 -10.50039336 3.68157936 -7.5625 2.375 C-6.07943359 1.70597656 -6.07943359 1.70597656 -4.56640625 1.0234375 C-2 0 -2 0 0 0 Z " fill="#EDAC67" transform="translate(150,24)"/>
<path d="M0 0 C6.95660771 0.57021375 13.31427305 2.01302694 20 4 C20 4.33 20 4.66 20 5 C15.11566627 5.19537335 11.57938711 4.62186627 7 3 C4.67305036 2.62468554 2.34023315 2.28082798 0 2 C0 1.34 0 0.68 0 0 Z " fill="#E4892B" transform="translate(300,8)"/>
<path d="M0 0 C-0.96071759 3.23150461 -1.69411485 4.75851173 -4.375 6.875 C-7.31409377 8.13461162 -8.07068419 7.90995768 -11 7 C-9.54634731 5.82750647 -8.08692581 4.66216184 -6.625 3.5 C-5.40683594 2.52546875 -5.40683594 2.52546875 -4.1640625 1.53125 C-2 0 -2 0 0 0 Z " fill="#ECAD61" transform="translate(112,46)"/>
<path d="M0 0 C-1.90881434 1.03544174 -3.82739204 2.05290085 -5.75 3.0625 C-6.81734375 3.63097656 -7.8846875 4.19945312 -8.984375 4.78515625 C-12.02593537 6.01044806 -13.04893565 6.25348607 -16 5 C-15 3 -15 3 -12.3828125 1.89453125 C-10.77019531 1.35892578 -10.77019531 1.35892578 -9.125 0.8125 C-8.05507813 0.44769531 -6.98515625 0.08289063 -5.8828125 -0.29296875 C-3 -1 -3 -1 0 0 Z " fill="#EDAB66" transform="translate(360,468)"/>
<path d="M0 0 C4.4571874 0.26218749 6.51522698 0.57711289 9.9375 3.5625 C10.618125 4.366875 11.29875 5.17125 12 6 C9.04876854 6.35133708 6.8502099 6.52850886 4.265625 4.921875 C2.77831883 3.6895356 1.38214043 2.34923232 0 1 C0 0.67 0 0.34 0 0 Z " fill="#E9953B" transform="translate(126,456)"/>
<path d="M0 0 C1.64359518 0.23969096 3.28703456 0.48049708 4.9296875 0.7265625 C6.30509684 0.90822034 7.68651099 1.04922154 9.0703125 1.1484375 C13.9235395 1.53595753 16.50739368 2.61653763 20 6 C15.86771776 5.35046462 11.81525368 4.5481708 7.75 3.5625 C6.71359375 3.31628906 5.6771875 3.07007813 4.609375 2.81640625 C2 2 2 2 0 0 Z " fill="#EB8414" transform="translate(164,474)"/>
<path d="M0 0 C0 3.71873182 -1.13235183 6.23418837 -2.5 9.6875 C-2.9640625 10.86699219 -3.428125 12.04648437 -3.90625 13.26171875 C-4.2671875 14.16535156 -4.628125 15.06898438 -5 16 C-5.33 16 -5.66 16 -6 16 C-5.67 12.7 -5.34 9.4 -5 6 C-4.01 5.67 -3.02 5.34 -2 5 C-1.33820153 3.01954441 -1.33820153 3.01954441 -1 1 C-0.67 0.67 -0.34 0.34 0 0 Z " fill="#E98A26" transform="translate(481,330)"/>
<path d="M0 0 C13.81776765 0.59453303 13.81776765 0.59453303 19 4 C14.90913548 5.67641098 11.28488982 4.2409319 7.25 3.0625 C6.20392578 2.76956055 6.20392578 2.76956055 5.13671875 2.47070312 C3.42201027 1.9891754 1.71065123 1.49574843 0 1 C0 0.67 0 0.34 0 0 Z " fill="#F1BC81" transform="translate(186,483)"/>
<path d="M0 0 C1.134375 0.020625 2.26875 0.04125 3.4375 0.0625 C0.70952337 2.79047663 -2.37148557 3.3044699 -6 4.25 C-6.68126953 4.44013672 -7.36253906 4.63027344 -8.06445312 4.82617188 C-11.42400773 5.71788519 -13.19773612 6.18408796 -16.5625 5.0625 C-15.70785156 4.78535156 -14.85320312 4.50820313 -13.97265625 4.22265625 C-12.86792969 3.86042969 -11.76320313 3.49820312 -10.625 3.125 C-9.52285156 2.76535156 -8.42070312 2.40570313 -7.28515625 2.03515625 C-1.67038382 0.02930498 -1.67038382 0.02930498 0 0 Z " fill="#F3BE81" transform="translate(324.5625,479.9375)"/>
<path d="M0 0 C0.33 0.66 0.66 1.32 1 2 C0.0625 4.125 0.0625 4.125 -1 6 C-1.66 6 -2.32 6 -3 6 C-3.12375 6.94875 -3.2475 7.8975 -3.375 8.875 C-4 12 -4 12 -6 14 C-5.67949202 11.66487041 -5.34403308 9.33177975 -5 7 C-4.896875 6.071875 -4.79375 5.14375 -4.6875 4.1875 C-4 2 -4 2 -1.9375 0.6875 C-1.298125 0.460625 -0.65875 0.23375 0 0 Z " fill="#EB8421" transform="translate(474,346)"/>
<path d="M0 0 C2.94678433 2.94678433 4.32041919 5.24093818 6 9 C6 9.66 6 10.32 6 11 C5.01 11 4.02 11 3 11 C3 10.34 3 9.68 3 9 C2.34 9 1.68 9 1 9 C0.67 6.03 0.34 3.06 0 0 Z " fill="#EFA862" transform="translate(464,124)"/>
<path d="M0 0 C1.62723299 0.45034123 3.25173664 0.91055354 4.875 1.375 C5.77992188 1.63023438 6.68484375 1.88546875 7.6171875 2.1484375 C10 3 10 3 12 5 C1.44191344 4.03644647 1.44191344 4.03644647 -3 3 C-2.01 2.67 -1.02 2.34 0 2 C0 1.34 0 0.68 0 0 Z " fill="#EA9D4D" transform="translate(336,17)"/>
<path d="M0 0 C2.93200474 2.85276137 5.64315404 5.65079784 8 9 C7.67 9.66 7.34 10.32 7 11 C5 9.625 5 9.625 3 8 C3 7.34 3 6.68 3 6 C2.34 6 1.68 6 1 6 C0.67 4.02 0.34 2.04 0 0 Z " fill="#EAA85A" transform="translate(447,99)"/>
<path d="M0 0 C-0.33 1.32 -0.66 2.64 -1 4 C-6.445 5.485 -6.445 5.485 -12 7 C-8.85595666 3.85595666 -4.70527539 0 0 0 Z " fill="#EFB36F" transform="translate(136,31)"/>
<path d="M0 0 C-2.12124966 0.86343824 -4.24713072 1.71550648 -6.375 2.5625 C-8.15003906 3.27599609 -8.15003906 3.27599609 -9.9609375 4.00390625 C-13 5 -13 5 -15 4 C-12.75723321 0.63584982 -12.35966988 0.51926755 -8.625 -0.25 C-7.85414063 -0.42015625 -7.08328125 -0.5903125 -6.2890625 -0.765625 C-3.90455492 -1.00977253 -2.26765432 -0.72482102 0 0 Z " fill="#EF8419" transform="translate(163,23)"/>
<path d="M0 0 C1.65 0 3.3 0 5 0 C1.53955845 3.02788635 -2.52249221 4.98556464 -7 6 C-9.25 5.578125 -9.25 5.578125 -11 5 C-8.09907498 3.06604999 -7.10325263 2.69868059 -3.8125 2.375 C-2.554375 2.25125 -1.29625 2.1275 0 2 C0 1.34 0 0.68 0 0 Z " fill="#F2BC84" transform="translate(339,474)"/>
<path d="M0 0 C2 1.375 2 1.375 4 3 C4 3.66 4 4.32 4 5 C4.61875 5.2475 5.2375 5.495 5.875 5.75 C8.35068687 7.20628639 8.95125002 8.37812506 10 11 C9.34 11 8.68 11 8 11 C8 10.34 8 9.68 8 9 C6.824375 8.9071875 6.824375 8.9071875 5.625 8.8125 C4.75875 8.544375 3.8925 8.27625 3 8 C1.75 5.625 1.75 5.625 1 3 C0.67 2.01 0.34 1.02 0 0 Z " fill="#F0BF7F" transform="translate(421,69)"/>
<path d="M0 0 C-3.3 2.64 -6.6 5.28 -10 8 C-10.66 7.67 -11.32 7.34 -12 7 C-10.38256073 3.479691 -8.92879075 1.68880731 -5.4375 0.125 C-2 -1 -2 -1 0 0 Z " fill="#EE8217" transform="translate(121,44)"/>
<path d="M0 0 C5.53846154 0.49230769 5.53846154 0.49230769 7.875 3.0625 C8.431875 4.0215625 8.431875 4.0215625 9 5 C6.1875 5.3125 6.1875 5.3125 3 5 C1.125 2.5 1.125 2.5 0 0 Z " fill="#EB8A28" transform="translate(107,443)"/>
<path d="M0 0 C0.66 0 1.32 0 2 0 C-0.70615034 10.74259681 -0.70615034 10.74259681 -5 14 C-4.54636829 12.41531323 -4.08688548 10.83230076 -3.625 9.25 C-3.36976563 8.36828125 -3.11453125 7.4865625 -2.8515625 6.578125 C-2.0790066 4.23919428 -1.16374324 2.16557438 0 0 Z " fill="#E8963F" transform="translate(466,360)"/>
<path d="M0 0 C0.66 0.33 1.32 0.66 2 1 C0.40758592 5.29951803 -2.35540725 7.39671947 -6 10 C-6.99 9.67 -7.98 9.34 -9 9 C-8.2575 8.443125 -7.515 7.88625 -6.75 7.3125 C-4.08292005 5.06972822 -2.08443768 2.77925025 0 0 Z " fill="#E69F51" transform="translate(99,54)"/>
<path d="M0 0 C1.32 0.33 2.64 0.66 4 1 C1.11658466 5.21422242 -1.04303419 6.76075855 -6 8 C-5.34 7.01 -4.68 6.02 -4 5 C-3.34 5 -2.68 5 -2 5 C-1.34 3.35 -0.68 1.7 0 0 Z " fill="#ED8514" transform="translate(101,54)"/>
<path d="M0 0 C0.66 0 1.32 0 2 0 C1.62669176 2.72574271 1.20805399 3.80822085 -0.84765625 5.703125 C-1.94400391 6.46882813 -1.94400391 6.46882813 -3.0625 7.25 C-3.79597656 7.77078125 -4.52945313 8.2915625 -5.28515625 8.828125 C-5.85105469 9.21484375 -6.41695312 9.6015625 -7 10 C-5.15014033 6.06048404 -2.92434659 3.21678125 0 0 Z " fill="#F0BA72" transform="translate(69,82)"/>
<path d="M0 0 C2.475 0.495 2.475 0.495 5 1 C5 1.66 5 2.32 5 3 C5.66 3 6.32 3 7 3 C7 3.66 7 4.32 7 5 C7.66 5 8.32 5 9 5 C9 5.66 9 6.32 9 7 C5.13066838 6.42676569 2.84777943 4.61046448 0 2 C0 1.34 0 0.68 0 0 Z " fill="#ED8620" transform="translate(375,37)"/>
<path d="M0 0 C-3.51187196 2.40814077 -5.72656908 3.36629408 -10 3 C-10.33 3.99 -10.66 4.98 -11 6 C-11.66 5.67 -12.32 5.34 -13 5 C-10.91708836 1.87563254 -10.38723523 1.4634974 -7.0625 0.25 C-6.37285156 -0.01296875 -5.68320312 -0.2759375 -4.97265625 -0.546875 C-3 -1 -3 -1 0 0 Z " fill="#ED8213" transform="translate(374,458)"/>
<path d="M0 0 C0.99 0 1.98 0 3 0 C1.68775452 3.93673644 0.08089673 6.22719294 -3 9 C-2.67 7.02 -2.34 5.04 -2 3 C-1.34 3 -0.68 3 0 3 C0 2.01 0 1.02 0 0 Z " fill="#E9943E" transform="translate(458,374)"/>
<path d="M0 0 C0 3.54404336 -0.60989485 4.10267905 -2.875 6.6875 C-3.40867187 7.31011719 -3.94234375 7.93273437 -4.4921875 8.57421875 C-6 10 -6 10 -8 10 C-6.34908222 5.70761377 -3.26245434 3.1206085 0 0 Z " fill="#F3BA74" transform="translate(79,72)"/>
<path d="M0 0 C-0.33 0.66 -0.66 1.32 -1 2 C-2.65 2 -4.3 2 -6 2 C-6 2.66 -6 3.32 -6 4 C-6.99 4 -7.98 4 -9 4 C-8.67 3.01 -8.34 2.02 -8 1 C-5.07175348 0.02391783 -3.04386724 -0.08226668 0 0 Z " fill="#E78521" transform="translate(345,472)"/>
<path d="M0 0 C0.98120464 3.05263664 0.98120464 4.94736336 0 8 C-0.99 8 -1.98 8 -3 8 C-2.67 6.02 -2.34 4.04 -2 2 C-1.34 2 -0.68 2 0 2 C0 1.34 0 0.68 0 0 Z " fill="#E78725" transform="translate(34,136)"/>
<path d="M0 0 C0.6875 1.6875 0.6875 1.6875 1 4 C-0.3125 6.75 -0.3125 6.75 -2 9 C-2.66 9 -3.32 9 -4 9 C-2.94124926 5.59687262 -1.99097846 2.98646769 0 0 Z " fill="#F1C079" transform="translate(36,129)"/>
<path d="M0 0 C1.32 0.33 2.64 0.66 4 1 C4 1.66 4 2.32 4 3 C5.32 3.33 6.64 3.66 8 4 C7.67 4.66 7.34 5.32 7 6 C4.0625 4.6875 4.0625 4.6875 1 3 C0.67 2.01 0.34 1.02 0 0 Z " fill="#E88419" transform="translate(392,49)"/>
<path d="M0 0 C0 0.66 0 1.32 0 2 C-0.99 2.33 -1.98 2.66 -3 3 C-3.99 4.485 -3.99 4.485 -5 6 C-6.32 5.67 -7.64 5.34 -9 5 C-7.87926138 4.16094435 -6.75325453 3.32892169 -5.625 2.5 C-4.99851562 2.0359375 -4.37203125 1.571875 -3.7265625 1.09375 C-2 0 -2 0 0 0 Z " fill="#EBB069" transform="translate(121,40)"/>
<path d="M0 0 C4.75 0.875 4.75 0.875 7 2 C7 2.66 7 3.32 7 4 C4.03 3.505 4.03 3.505 1 3 C0.67 2.01 0.34 1.02 0 0 Z " fill="#EA9F4C" transform="translate(348,22)"/>
<path d="M0 0 C2 3 2 3 1.625 5.1875 C1.41875 5.785625 1.2125 6.38375 1 7 C-0.5 5.6875 -0.5 5.6875 -2 4 C-2 3.01 -2 2.02 -2 1 C-1.34 0.67 -0.68 0.34 0 0 Z " fill="#ED9B47" transform="translate(78,415)"/>
<path d="M0 0 C0.33 0.66 0.66 1.32 1 2 C2.2065625 2.433125 2.2065625 2.433125 3.4375 2.875 C6 4 6 4 7.3125 6.125 C7.539375 6.74375 7.76625 7.3625 8 8 C6.68 7.34 5.36 6.68 4 6 C4 5.34 4 4.68 4 4 C2.68 3.67 1.36 3.34 0 3 C0 2.01 0 1.02 0 0 Z " fill="#EF8414" transform="translate(70,408)"/>
<path d="M0 0 C1.25541557 3.76624671 0.37061958 5.37188934 -1 9 C-1.33 9 -1.66 9 -2 9 C-2 6.36 -2 3.72 -2 1 C-1.34 0.67 -0.68 0.34 0 0 Z " fill="#F2AC6A" transform="translate(484,323)"/>
<path d="M0 0 C3.16115776 1.36983503 3.9927092 1.9890638 6 5 C3.03 4.505 3.03 4.505 0 4 C0 2.68 0 1.36 0 0 Z " fill="#EEAA63" transform="translate(411,61)"/>
</svg>
