<svg id="Capa_1" data-name="Capa 1" xmlns="http://www.w3.org/2000/svg" viewBox="0 0 306.92 200.04"><defs><style>.cls-1{fill:#f18c25;}.cls-2{fill:#f09836;}.cls-3{fill:#f1922a;}.cls-4{fill:#f1953d;}.cls-5{fill:#f48e24;}.cls-6{fill:#f19f46;}.cls-7{fill:#fff;}.cls-8{fill:#fe7e00;}.cls-9{fill:#ff7f00;}</style></defs><path class="cls-1" d="M306.87,18a4.33,4.33,0,0,1-.65-3.19A6.87,6.87,0,0,1,306.87,18Z"/><path class="cls-2" d="M227.1,143.68a4.69,4.69,0,0,1,1.42-2.46A7.57,7.57,0,0,1,227.1,143.68Z"/><path class="cls-3" d="M229.25,139.83c.24-.61-.08-1.51.9-1.73A3.84,3.84,0,0,1,229.25,139.83Z"/><path class="cls-4" d="M190.85,177.14a2,2,0,0,1,1.73-.9A3.79,3.79,0,0,1,190.85,177.14Z"/><path class="cls-5" d="M102.09,168.57c.65,0,.93.47,1.26.91A2.16,2.16,0,0,1,102.09,168.57Z"/><path class="cls-6" d="M220.33,11.55a1.06,1.06,0,0,1,1,.73C220.84,12.22,220.6,11.88,220.33,11.55Z"/><path class="cls-7" d="M0,16.1c.37-.11.27-.45.33-.7A12.84,12.84,0,0,1,7.52,6.5,50,50,0,0,1,21.24,2.43C36.39-.25,51.68-.21,67,.22A137.83,137.83,0,0,1,93,3.17c1.39.31,2.76.7,4.13,1-34.91,22.51-54.52,54-54.6,95.83s19.38,73.33,54.13,96a79.35,79.35,0,0,1-9.5,2C74,200.14,60.75,200.16,47.48,200a152.61,152.61,0,0,1-28.92-2.85A41.48,41.48,0,0,1,7.69,193.5a13.67,13.67,0,0,1-7.37-8.95c0-.19,0-.4-.32-.42Z"/><path class="cls-8" d="M229.25,139.83l-.73,1.39a26.14,26.14,0,0,0-1.42,2.46A72.25,72.25,0,0,1,219.17,155a85.08,85.08,0,0,1-20.64,17.94,54,54,0,0,1-5.95,3.31,14.19,14.19,0,0,0-1.73.9,83.7,83.7,0,0,1-25.51,7.76,85.89,85.89,0,0,1-22.31.21,84.15,84.15,0,0,1-33.66-11.57,50,50,0,0,1-6-4.06c-.48-.22-.74-.75-1.26-.91a78.46,78.46,0,0,1-12.75-11.68,84.4,84.4,0,0,1-19.86-40A86.65,86.65,0,0,1,69,86.4a85.47,85.47,0,0,1,66.87-69.84,86.16,86.16,0,0,1,30.25-.88,85.54,85.54,0,0,1,71.32,68.25,85.7,85.7,0,0,1,.47,29.88,82.69,82.69,0,0,1-7.77,24.29C229.59,138.54,229.59,139.28,229.25,139.83Z"/><path class="cls-8" d="M220.33,11.55c-2.53-1.79-5.05-3.63-7.7-5.26-.23-.15-.59-.21-.6-.53s.43-.4.71-.51A60.5,60.5,0,0,1,225.59,2C236.68.28,247.86.18,259,.28c9.48.08,18.93.51,28.25,2.35,4.84,1,9.57,2.22,13.73,5a12,12,0,0,1,5.2,7.19,20.5,20.5,0,0,0,.65,3.19c0,.55,0,1.11,0,1.67q0,80.36,0,160.7c0,6.07-2.82,10.3-8.1,13s-11.27,4-17.22,4.79c-15.38,2.07-30.83,1.91-46.29,1A87.88,87.88,0,0,1,215,195.87a13.84,13.84,0,0,1-3.05-1.2c1.05-.71,2-1.37,3-2A110.69,110.69,0,0,0,263.89,88.19,109.57,109.57,0,0,0,253.36,51.7a111.4,111.4,0,0,0-31.52-38.94c-.19-.15-.36-.32-.53-.48A10,10,0,0,0,220.33,11.55Z"/><circle class="cls-9" cx="153.73" cy="99.98" r="86.25"/></svg>